<svg width="890" height="201" viewBox="0 0 890 201" fill="none" xmlns="http://www.w3.org/2000/svg">
<path d="M44.22 61C55.44 61 64.3133 63.8233 70.84 69.47C77.3667 75.0433 80.63 83.0367 80.63 93.45H57.42C57.42 89.05 56.2467 85.5667 53.9 83C51.6267 80.4333 48.3633 79.15 44.11 79.15C39.1967 79.15 35.5667 80.69 33.22 83.77C30.9467 86.85 29.81 91.14 29.81 96.64V103.68C29.81 109.107 30.9467 113.397 33.22 116.55C35.5667 119.63 39.1233 121.17 43.89 121.17C48.5833 121.17 52.14 119.96 54.56 117.54C56.98 115.12 58.19 111.71 58.19 107.31H80.63C80.63 117.65 77.44 125.57 71.06 131.07C64.7533 136.57 55.8067 139.32 44.22 139.32C31.3133 139.32 21.5233 136.02 14.85 129.42C8.25 122.82 4.95 113.067 4.95 100.16C4.95 87.2533 8.25 77.5 14.85 70.9C21.5233 64.3 31.3133 61 44.22 61ZM94.8552 138V62.32H119.165V138H94.8552ZM190.629 138L158.839 101.26V138H136.509V62.32H157.739L189.529 99.61V62.32H211.859V138H190.629ZM228.14 62.32H293.59V80.47H252.45V90.92H287.65V108.3H252.45V119.85H294.36V138H228.14V62.32ZM372.535 138V110.72C372.535 107.347 372.645 103.9 372.865 100.38C373.158 96.7867 373.451 93.78 373.745 91.36C374.038 88.94 374.221 87.4 374.295 86.74H373.855L359.885 138H340.855L326.775 86.85H326.335C326.408 87.51 326.591 89.05 326.885 91.47C327.251 93.8167 327.581 96.7867 327.875 100.38C328.168 103.9 328.315 107.347 328.315 110.72V138H305.985V62.32H340.305L351.745 105.99H352.185L363.515 62.32H396.625V138H372.535ZM462.112 138L458.922 127.33H432.412L429.222 138H404.362L431.972 62.32H460.242L487.852 138H462.112ZM437.472 110.39H453.862L445.942 83.44H445.502L437.472 110.39ZM531.163 61C542.383 61 551.257 63.8233 557.783 69.47C564.31 75.0433 567.573 83.0367 567.573 93.45H544.363C544.363 89.05 543.19 85.5667 540.843 83C538.57 80.4333 535.307 79.15 531.053 79.15C526.14 79.15 522.51 80.69 520.163 83.77C517.89 86.85 516.753 91.14 516.753 96.64V103.68C516.753 109.107 517.89 113.397 520.163 116.55C522.51 119.63 526.067 121.17 530.833 121.17C535.527 121.17 539.083 119.96 541.503 117.54C543.923 115.12 545.133 111.71 545.133 107.31H567.573C567.573 117.65 564.383 125.57 558.003 131.07C551.697 136.57 542.75 139.32 531.163 139.32C518.257 139.32 508.467 136.02 501.793 129.42C495.193 122.82 491.893 113.067 491.893 100.16C491.893 87.2533 495.193 77.5 501.793 70.9C508.467 64.3 518.257 61 531.163 61ZM631.739 138V109.29H605.009V138H580.699V62.32H605.009V89.93H631.739V62.32H656.049V138H631.739Z" fill="#6C29A3"/>
<path d="M725.422 12.7427C721.408 13.5454 720.104 16.7561 720.104 25.7862V34.114H732.646H745.188V23.0772V12.0404L736.458 12.1407C731.542 12.241 726.626 12.542 725.422 12.7427Z" fill="#6C29A3"/>
<path d="M761.241 29.5988V47.1574H789.335H817.429V29.5988V12.0401H789.335H761.241V29.5988Z" fill="#6C29A3"/>
<path d="M833.482 22.9768V34.114H846.024H858.566V25.6859C858.566 13.445 857.864 12.7427 844.118 12.241L833.482 11.8396V22.9768Z" fill="#6C29A3"/>
<path d="M720.104 50.1676V59.1978H732.646H745.188V50.1676V41.1375H732.646H720.104V50.1676Z" fill="#6C29A3"/>
<path d="M833.482 50.1676V59.1978H846.024H858.566V50.1676V41.1375H846.024H833.482V50.1676Z" fill="#6C29A3"/>
<path d="M720.104 75.2514V84.2815H732.646H745.188V75.2514V66.2212H732.646H720.104V75.2514Z" fill="#6C29A3"/>
<path d="M761.241 100.335V134.449H789.335H817.429V100.335V66.2211H789.335H761.241V100.335Z" fill="#6C29A3"/>
<path d="M833.482 75.2514V84.2815H846.024H858.566V75.2514V66.2212H846.024H833.482V75.2514Z" fill="#6C29A3"/>
<path d="M720.104 100.335V109.365H732.646H745.188V100.335V91.305H732.646H720.104V100.335Z" fill="#6C29A3"/>
<path d="M833.482 100.335V109.365H846.024H858.566V100.335V91.305H846.024H833.482V100.335Z" fill="#6C29A3"/>
<path d="M720.104 125.419V134.449H732.646H745.188V125.419V116.389H732.646H720.104V125.419Z" fill="#6C29A3"/>
<path d="M833.482 125.419V134.449H846.024H858.566V125.419V116.389H846.024H833.482V125.419Z" fill="#6C29A3"/>
<path d="M720.104 150.503V159.533H732.646H745.188V150.503V141.472H732.646H720.104V150.503Z" fill="#6C29A3"/>
<path d="M833.482 150.503V159.533H846.024H858.566V150.503V141.472H846.024H833.482V150.503Z" fill="#6C29A3"/>
<path d="M761.241 171.071V188.63H789.335H817.429V171.071V153.513H789.335H761.241V171.071Z" fill="#6C29A3"/>
<path d="M720.104 174.985C720.104 187.225 720.806 187.928 734.552 188.43L745.188 188.831V177.694V166.556H732.646H720.104V174.985Z" fill="#6C29A3"/>
<path d="M833.482 177.693V188.83L844.118 188.429C857.864 187.927 858.566 187.225 858.566 174.984V166.556H846.024H833.482V177.693Z" fill="#6C29A3"/>
</svg>
